# xmcd
#
# Track frame offsets:
#	150
#	15825
#	33476
#	47861
#	63818
#	80414
#	94020
#	109144
#	124053
#	141663
#	155312
#	169967
#	181775
#	198320
#	215886
#	233617
#	249123
#	262491
#
# Disc length: 3697 seconds
#
# Revision: 1
# Processed by: cddbd v1.5.2PL0 Copyright (c) Steve Scherf et al.
# Submitted via: audiograbber 1.83.01
#
DISCID=f70e6f12
DTITLE=Various Artist - Country Heat 2016
DYEAR=2015
DGENRE=Country
TTITLE0=Brett Kissel - Airwaves
TTITLE1=Blake Shelton - Sangria
TTITLE2=Kenny Chesney w/ Grace Potter - Wild Child
TTITLE3=Carrie Underwood - Little Toy Guns
TTITLE4=Brad Paisley - Crushin' It
TTITLE5=Frankie Ballard - Young and Crazy
TTITLE6=Kelsea Ballerini - Love Me Like You Mean It
TTITLE7=Cold Creek Country - Our Town
TTITLE8=Steven Lee Olsen - Just Like Love
TTITLE9=Michael Ray - Kiss You In The Morning
TTITLE10=Hunter Hayes - 21
TTITLE11=Brett Eldredge - Lose My Mind
TTITLE12=Tebey - When The Buzz Wears Off
TTITLE13=Cam - Burning House
TTITLE14=Paul Brandt feat. Jess Moskaluke - I'm An Open Road
TTITLE15=Jason Benoit - Gone Long Gone
TTITLE16=Chris Hadfield - Feet Up
TTITLE17=Chris Young - I'm Comin' Over
EXTD=
EXTT0=
EXTT1=
EXTT2=
EXTT3=
EXTT4=
EXTT5=
EXTT6=
EXTT7=
EXTT8=
EXTT9=
EXTT10=
EXTT11=
EXTT12=
EXTT13=
EXTT14=
EXTT15=
EXTT16=
EXTT17=
PLAYORDER=
